<svg width="593" height="137" viewBox="0 0 593 137" fill="none" xmlns="http://www.w3.org/2000/svg">
<g clip-path="url(#clip0_1_2)">
<path d="M15 12H98V36H51V56.8H90.6V78.4H51V101.6H97.8V126H15V12ZM201.066 104.2V126H108.666V103.2L162.866 34H110.266V12H199.466V35L146.066 104.2H201.066Z" fill="#008CFF"/>
<path d="M364 126H330.4L327.8 63.2C327.4 50.8 326.933 41.4 326.4 35H325.8C324.2 40.0667 322.333 47.9333 320.2 58.6L319.2 63.6L305.4 126H271.8L260.2 69.8L258.2 59.8C255.4 47.4 253.467 39.1333 252.4 35H251.8C251.267 41.6667 250.8 52.5333 250.4 67.6C250.267 68.5333 250.2 70 250.2 72L248.4 126H214.6L219.4 12H276.6L286.4 61.2L288.8 74.4C289.867 70.2667 290.867 65.6667 291.8 60.6L301 12H359.4L364 126ZM381.248 12H417.248V99.6H463.848V126H381.248V12ZM542.766 101H509.566L503.566 126H466.766L503.566 12H550.566L585.766 126H548.766L542.766 101ZM525.966 36.6L514.166 78.8H537.966L526.766 36.6H525.966Z" fill="black"/>
</g>
<defs>
<clipPath id="clip0_1_2">
<rect width="593" height="137" fill="white"/>
</clipPath>
</defs>
</svg>
